# xmcd CD database file
#
# Track frame offsets:
#	150
#	13215
#	41982
#	62005
#	78940
#	98895
#	115237
#	133287
#	156515
#
# Disc length: 2403 seconds
#
# Revision: 4
# Processed by: cddbd v1.5.2PL0 Copyright (c) Steve Scherf et al.
# Submitted via: CDex 1.70beta1
#
DISCID=7d096109
DTITLE=Ted Curson - Plenty Of Horn
DYEAR=1961
DGENRE=Jazz
TTITLE0=Caravan
TTITLE1=Nosruc
TTITLE2=The Things We Did Last Summer
TTITLE3=Dem's Blues
TTITLE4=Ahma (See Ya)
TTITLE5=Flatted Fifth
TTITLE6=Bali-H'ai
TTITLE7=Antibes
TTITLE8=Mr. Teddy
EXTD=YEAR: 1961
EXTT0=
EXTT1=
EXTT2=
EXTT3=
EXTT4=
EXTT5=
EXTT6=
EXTT7=
EXTT8=
PLAYORDER=
